<?xml version="1.0" encoding="UTF-8" standalone="no"?>
<!-- Created with Inkscape (http://www.inkscape.org/) -->

<svg
   xmlns:svg="http://www.w3.org/2000/svg"
   xmlns="http://www.w3.org/2000/svg"
   version="1.1"
   width="800"
   height="108"
   id="svg2"
   xml:space="preserve">
   <defs
     id="defs6"><clipPath
       id="clipPath24"><path
         d="m 0,134.03 667.421,0 L 667.421,0 0,0 0,134.03 z"
         id="path26" /></clipPath></defs><g
     transform="matrix(1.25,0,0,-1.25,-4.0189875e-6,107.38485)"
     id="g10"><g
       transform="matrix(1.0694399,0,0,1.0694399,0.03400398,53.948741)"
       id="g12"><path
         d="M 0,0 34.488,0 17.241,29.884 0,0 z"
         id="path14"
         style="fill:#000000;fill-opacity:1;fill-rule:nonzero;stroke:none" /></g><g
       transform="matrix(1.0694399,0,0,1.0694399,304.09335,72.339151)"
       id="g16"><path
         d="m 0,0 -12.945,0 0,11.304 -4.972,0 0,-28.433 4.972,0 0,12.819 12.945,0 0,-12.819 4.977,0 0,28.433 L 0,11.304 0,0 z"
         id="path18"
         style="fill:#000000;fill-opacity:1;fill-rule:nonzero;stroke:none" /></g><g
       transform="matrix(1.0694399,0,0,1.0694399,-36.882947,-25.471174)"
       id="g20"><g
         clip-path="url(#clipPath24)"
         id="g22"><g
           transform="translate(355.6509,92.9651)"
           id="g28"><path
             d="m 0,0 c -0.558,-0.608 -0.721,-1.198 -0.721,-1.198 l 0,3.318 -4.542,0 0,-20.839 4.542,0 0,9.784 c 0,6.273 3.159,7.216 7.085,7.216 l 0,3.839 C 2.102,2.12 0.936,1.048 0,0"
             id="path30"
             style="fill:#000000;fill-opacity:1;fill-rule:nonzero;stroke:none" /></g><g
           transform="translate(369.1898,77.8308)"
           id="g32"><path
             d="m 0,0 11.784,13.812 0,3.442 -16.719,0 0,-3.839 10.592,0 -11.393,-13.817 0,-3.183 18.117,0 0,3.585 L 0,0 z"
             id="path34"
             style="fill:#000000;fill-opacity:1;fill-rule:nonzero;stroke:none" /></g><g
           transform="translate(98.997,91.4079)"
           id="g36"><path
             d="m 0,0 -12.953,0 0,11.313 -4.98,0 0,-28.458 4.98,0 0,12.832 12.953,0 0,-12.832 4.979,0 0,28.458 L 0,11.313 0,0 z"
             id="path38"
             style="fill:#000000;fill-opacity:1;fill-rule:nonzero;stroke:none" /></g><g
           transform="translate(123.3939,81.9114)"
           id="g40"><path
             d="m 0,0 c -0.222,-0.853 -0.568,-1.62 -1.042,-2.31 -0.477,-0.672 -1.075,-1.225 -1.811,-1.652 -0.738,-0.413 -1.601,-0.622 -2.598,-0.622 -1.001,0 -1.868,0.209 -2.605,0.622 -0.734,0.427 -1.338,0.98 -1.815,1.652 -0.465,0.69 -0.82,1.457 -1.04,2.31 -0.223,0.854 -0.334,1.73 -0.334,2.625 0,0.866 0.111,1.726 0.334,2.593 0.22,0.865 0.575,1.634 1.04,2.306 0.477,0.674 1.081,1.22 1.815,1.638 0.737,0.426 1.604,0.631 2.605,0.631 0.997,0 1.86,-0.205 2.598,-0.631 C -2.117,8.744 -1.519,8.198 -1.042,7.524 -0.568,6.852 -0.222,6.083 0,5.218 0.226,4.351 0.335,3.491 0.335,2.625 0.335,1.73 0.226,0.854 0,0 m 2.127,10.303 c -0.879,0.952 -1.956,1.688 -3.232,2.23 -1.269,0.534 -2.72,0.803 -4.346,0.803 -1.636,0 -3.08,-0.269 -4.357,-0.803 -1.275,-0.542 -2.351,-1.278 -3.231,-2.23 -0.876,-0.953 -1.555,-2.081 -2.004,-3.392 -0.466,-1.309 -0.691,-2.74 -0.691,-4.286 0,-1.584 0.225,-3.029 0.691,-4.344 0.449,-1.306 1.128,-2.437 2.004,-3.386 0.88,-0.936 1.956,-1.688 3.231,-2.228 1.277,-0.537 2.721,-0.804 4.357,-0.804 1.626,0 3.077,0.267 4.346,0.804 1.276,0.54 2.353,1.292 3.232,2.228 0.883,0.949 1.551,2.08 2.012,3.386 C 4.6,-0.404 4.83,1.041 4.83,2.625 4.83,4.171 4.6,5.602 4.139,6.911 3.678,8.222 3.01,9.35 2.127,10.303"
             id="path42"
             style="fill:#000000;fill-opacity:1;fill-rule:nonzero;stroke:none" /></g><g
           transform="translate(137.2472,90.3031)"
           id="g44"><path
             d="m 0,0 c 0.549,0.538 1.157,0.911 1.812,1.105 0.653,0.192 1.273,0.297 1.853,0.297 1.259,0 2.304,-0.322 3.13,-0.971 0.828,-0.637 1.333,-1.594 1.514,-2.849 l 4.495,0 C 12.7,-1.163 12.385,-0.074 11.86,0.85 11.331,1.771 10.656,2.53 9.828,3.141 9.002,3.732 8.057,4.195 6.996,4.497 5.927,4.799 4.802,4.944 3.623,4.944 1.945,4.944 0.477,4.662 -0.771,4.099 -2.018,3.535 -3.062,2.757 -3.9,1.779 -4.742,0.791 -5.371,-0.377 -5.792,-1.715 c -0.42,-1.336 -0.631,-2.768 -0.631,-4.298 0,-1.492 0.218,-2.881 0.648,-4.177 0.431,-1.283 1.073,-2.391 1.915,-3.328 0.84,-0.924 1.867,-1.666 3.089,-2.207 1.224,-0.536 2.636,-0.804 4.235,-0.804 2.627,0 4.739,0.707 6.327,2.115 1.586,1.402 2.594,3.425 3.013,6.085 l -4.495,0 c -0.205,-1.476 -0.74,-2.623 -1.592,-3.433 -0.855,-0.812 -1.937,-1.214 -3.253,-1.214 -0.97,0 -1.795,0.2 -2.478,0.604 -0.684,0.409 -1.241,0.94 -1.673,1.6 -0.437,0.649 -0.755,1.41 -0.948,2.25 -0.199,0.839 -0.295,1.669 -0.295,2.509 0,1.557 0.179,2.805 0.55,3.77 C -1.013,-1.286 -0.552,-0.535 0,0"
             id="path46"
             style="fill:#000000;fill-opacity:1;fill-rule:nonzero;stroke:none" /></g><g
           transform="translate(163.7378,95.2473)"
           id="g48"><path
             d="m 0,0 c -1.341,0 -2.552,-0.313 -3.644,-0.93 -1.09,-0.603 -1.909,-1.386 -2.464,-2.295 l -0.078,0 0,10.435 -4.492,0 0,-28.134 4.492,0 0,12.021 c 0,0.73 0.117,1.43 0.355,2.093 0.239,0.65 0.565,1.219 0.984,1.704 0.417,0.495 0.937,0.867 1.535,1.142 0.609,0.275 1.286,0.421 2.053,0.421 1.337,0 2.32,-0.365 2.952,-1.082 0.632,-0.732 0.971,-1.881 1.024,-3.493 l 0,-12.806 4.495,0 0,13.989 c 0,2.315 -0.646,4.046 -1.932,5.197 C 3.994,-0.579 2.234,0 0,0"
             id="path50"
             style="fill:#000000;fill-opacity:1;fill-rule:nonzero;stroke:none" /></g><g
           transform="translate(189.9521,84.6049)"
           id="g52"><path
             d="m 0,0 c -0.617,0.455 -1.32,0.8 -2.113,1.075 -0.792,0.265 -1.591,0.486 -2.407,0.664 -0.843,0.181 -1.658,0.357 -2.455,0.51 -0.789,0.165 -1.494,0.35 -2.11,0.571 -0.621,0.222 -1.122,0.504 -1.503,0.845 -0.383,0.344 -0.575,0.79 -0.575,1.338 0,0.457 0.134,0.809 0.395,1.082 0.266,0.28 0.585,0.498 0.968,0.638 0.378,0.153 0.785,0.24 1.222,0.294 0.435,0.052 0.804,0.083 1.122,0.083 0.999,0 1.882,-0.181 2.661,-0.551 0.772,-0.375 1.266,-1.089 1.476,-2.164 l 4.686,0 c -0.133,1.129 -0.45,2.086 -0.969,2.886 -0.507,0.8 -1.15,1.457 -1.927,1.957 -0.772,0.491 -1.639,0.858 -2.598,1.075 -0.96,0.234 -1.965,0.339 -3.014,0.339 -0.922,0 -1.887,-0.095 -2.898,-0.273 -1.008,-0.183 -1.933,-0.503 -2.758,-0.961 -0.827,-0.469 -1.509,-1.074 -2.046,-1.822 -0.541,-0.741 -0.806,-1.674 -0.806,-2.775 0,-1.021 0.18,-1.881 0.549,-2.583 0.366,-0.688 0.863,-1.264 1.476,-1.714 0.62,-0.443 1.314,-0.803 2.088,-1.065 0.776,-0.261 1.586,-0.483 2.424,-0.661 0.815,-0.193 1.617,-0.358 2.404,-0.51 0.788,-0.165 1.494,-0.351 2.105,-0.573 0.62,-0.232 1.122,-0.529 1.518,-0.889 0.396,-0.372 0.606,-0.84 0.633,-1.419 0.026,-0.582 -0.11,-1.04 -0.414,-1.397 -0.302,-0.36 -0.687,-0.626 -1.168,-0.808 -0.467,-0.186 -0.975,-0.308 -1.514,-0.377 -0.536,-0.072 -1.016,-0.093 -1.436,-0.093 -1.209,0 -2.245,0.263 -3.112,0.785 -0.867,0.526 -1.366,1.441 -1.496,2.76 l -4.492,0 c 0.026,-1.216 0.268,-2.255 0.729,-3.137 0.459,-0.881 1.097,-1.613 1.898,-2.202 0.798,-0.595 1.747,-1.03 2.838,-1.321 1.096,-0.289 2.286,-0.438 3.577,-0.438 1.052,0 2.118,0.12 3.2,0.357 1.077,0.235 2.056,0.619 2.939,1.145 0.878,0.523 1.595,1.215 2.15,2.051 0.553,0.837 0.831,1.861 0.831,3.068 0,1 -0.189,1.841 -0.574,2.517 C 1.122,-1.007 0.623,-0.443 0,0"
             id="path54"
             style="fill:#000000;fill-opacity:1;fill-rule:nonzero;stroke:none" /></g><g
           transform="translate(200.8087,90.3031)"
           id="g56"><path
             d="m 0,0 c 0.549,0.538 1.157,0.911 1.812,1.105 0.657,0.192 1.273,0.297 1.851,0.297 1.263,0 2.306,-0.322 3.134,-0.971 0.828,-0.637 1.334,-1.594 1.517,-2.849 l 4.493,0 C 12.7,-1.163 12.385,-0.074 11.86,0.85 11.336,1.771 10.66,2.53 9.831,3.141 9.003,3.732 8.052,4.195 6.996,4.497 5.929,4.799 4.809,4.944 3.621,4.944 1.943,4.944 0.482,4.662 -0.765,4.099 -2.015,3.535 -3.062,2.757 -3.903,1.779 -4.744,0.791 -5.371,-0.377 -5.79,-1.715 c -0.421,-1.336 -0.629,-2.768 -0.629,-4.298 0,-1.492 0.216,-2.881 0.648,-4.177 0.435,-1.283 1.069,-2.391 1.913,-3.328 0.838,-0.924 1.872,-1.666 3.093,-2.207 1.221,-0.536 2.633,-0.804 4.23,-0.804 2.628,0 4.736,0.707 6.327,2.115 1.587,1.402 2.593,3.425 3.015,6.085 l -4.493,0 c -0.212,-1.476 -0.74,-2.623 -1.593,-3.433 -0.855,-0.812 -1.94,-1.214 -3.256,-1.214 -0.971,0 -1.798,0.2 -2.479,0.604 -0.684,0.409 -1.241,0.94 -1.676,1.6 -0.435,0.649 -0.746,1.41 -0.945,2.25 -0.2,0.839 -0.295,1.669 -0.295,2.509 0,1.557 0.183,2.805 0.547,3.77 C -1.011,-1.286 -0.552,-0.535 0,0"
             id="path58"
             style="fill:#000000;fill-opacity:1;fill-rule:nonzero;stroke:none" /></g><g
           transform="translate(227.3025,95.2473)"
           id="g60"><path
             d="m 0,0 c -1.341,0 -2.557,-0.313 -3.645,-0.93 -1.093,-0.603 -1.911,-1.386 -2.463,-2.295 l -0.081,0 0,10.435 -4.488,0 0,-28.134 4.488,0 0,12.021 c 0,0.73 0.118,1.43 0.354,2.093 0.24,0.65 0.571,1.219 0.988,1.704 0.42,0.495 0.932,0.867 1.538,1.142 0.601,0.275 1.286,0.421 2.049,0.421 1.335,0 2.321,-0.365 2.955,-1.082 0.627,-0.732 0.969,-1.881 1.02,-3.493 l 0,-12.806 4.497,0 0,13.989 c 0,2.315 -0.648,4.046 -1.932,5.197 C 3.988,-0.579 2.231,0 0,0"
             id="path62"
             style="fill:#000000;fill-opacity:1;fill-rule:nonzero;stroke:none" /></g><g
           transform="translate(251.8425,82.883)"
           id="g64"><path
             d="M 0,0 C 0,-0.798 -0.086,-1.527 -0.257,-2.215 -0.426,-2.897 -0.713,-3.481 -1.105,-3.963 -1.5,-4.447 -2.006,-4.836 -2.64,-5.127 c -0.632,-0.289 -1.42,-0.429 -2.365,-0.429 -1.232,0 -2.196,0.36 -2.879,1.102 -0.682,0.733 -1.023,1.989 -1.023,3.78 l 0,12.49 -4.49,0 0,-12.918 c 0,-2.687 0.598,-4.69 1.791,-6.015 1.194,-1.328 3.133,-1.992 5.811,-1.992 1.133,0 2.242,0.31 3.332,0.927 1.091,0.622 1.911,1.442 2.463,2.464 l 0.078,0 0,-2.841 4.413,0 0,20.375 L 0,11.816 0,0 z"
             id="path66"
             style="fill:#000000;fill-opacity:1;fill-rule:nonzero;stroke:none" /></g><g
           transform="translate(272.6183,86.3017)"
           id="g68"><path
             d="M 0,0 C 0.029,0.773 0.18,1.473 0.453,2.136 0.731,2.786 1.097,3.354 1.56,3.839 2.018,4.335 2.57,4.707 3.21,4.981 3.86,5.257 4.572,5.403 5.361,5.403 6.119,5.403 6.81,5.245 7.429,4.944 8.046,4.653 8.568,4.249 9.004,3.768 9.44,3.274 9.782,2.715 10.027,2.055 10.275,1.392 10.425,0.717 10.485,0 L 0,0 z m 12.843,5.278 c -0.84,1.106 -1.895,1.996 -3.167,2.668 -1.274,0.661 -2.719,1 -4.315,1 C 3.837,8.946 2.468,8.654 1.263,8.079 0.057,7.501 -0.976,6.719 -1.831,5.742 -2.684,4.75 -3.342,3.603 -3.8,2.307 -4.258,1.013 -4.487,-0.357 -4.487,-1.808 c 0,-1.582 0.216,-3.016 0.651,-4.34 0.43,-1.308 1.071,-2.44 1.925,-3.38 0.858,-0.944 1.901,-1.673 3.134,-2.215 1.233,-0.522 2.653,-0.785 4.258,-0.785 1.102,0 2.157,0.159 3.169,0.459 1.01,0.302 1.92,0.744 2.737,1.342 0.82,0.591 1.512,1.315 2.09,2.181 0.578,0.87 0.984,1.846 1.222,2.953 l -4.259,0 C 10.044,-6.727 9.449,-7.573 8.65,-8.135 7.85,-8.694 6.792,-8.974 5.481,-8.974 4.533,-8.974 3.719,-8.812 3.033,-8.485 2.354,-8.153 1.79,-7.717 1.34,-7.168 0.896,-6.617 0.557,-5.969 0.336,-5.241 0.111,-4.508 0,-3.736 0,-2.949 l 14.974,0 c 0.183,1.516 0.086,3 -0.295,4.432 -0.383,1.433 -0.993,2.694 -1.836,3.795"
             id="path70"
             style="fill:#000000;fill-opacity:1;fill-rule:nonzero;stroke:none" /></g><path
           d="m 260.541,74.324 4.493,0 0,28.134 -4.493,0 0,-28.134 z"
           id="path72"
           style="fill:#000000;fill-opacity:1;fill-rule:nonzero;stroke:none" /><g
           transform="translate(340.7777,81.2561)"
           id="g74"><path
             d="m 0,0 c 0,-0.713 -0.169,-1.322 -0.517,-1.81 -0.345,-0.489 -0.774,-0.901 -1.295,-1.221 -0.52,-0.318 -1.072,-0.546 -1.653,-0.668 -0.588,-0.14 -1.13,-0.209 -1.635,-0.209 -0.398,0 -0.845,0.041 -1.337,0.125 -0.493,0.084 -0.94,0.214 -1.353,0.416 -0.414,0.201 -0.761,0.476 -1.055,0.824 -0.293,0.333 -0.441,0.766 -0.441,1.269 0,0.591 0.103,1.081 0.303,1.502 0.198,0.405 0.472,0.737 0.814,0.988 0.347,0.25 0.745,0.447 1.195,0.598 0.452,0.14 0.917,0.263 1.396,0.342 1.012,0.184 2.018,0.321 3.031,0.412 C -1.541,2.669 -0.69,2.937 0,3.383 L 0,0 z m 4.544,-2.158 0,10.411 c 0,1.087 -0.235,2.016 -0.719,2.769 -0.477,0.755 -1.106,1.379 -1.886,1.852 -0.79,0.475 -1.672,0.822 -2.656,1.031 -0.985,0.225 -1.977,0.322 -2.99,0.322 -1.142,0 -2.256,-0.097 -3.345,-0.322 -1.088,-0.209 -2.065,-0.576 -2.929,-1.111 -0.866,-0.535 -1.575,-1.234 -2.133,-2.113 -0.557,-0.876 -0.88,-1.979 -0.956,-3.304 l 4.547,0 c 0.102,1.114 0.568,1.936 1.392,2.469 0.821,0.529 1.87,0.794 3.145,0.794 0.454,0 0.932,-0.035 1.439,-0.094 0.503,-0.064 0.959,-0.206 1.371,-0.399 C -0.759,9.949 -0.417,9.662 -0.137,9.283 0.144,8.911 0.281,8.434 0.281,7.85 0.281,7.195 0.113,6.683 -0.217,6.364 -0.547,6.032 -1.001,5.784 -1.573,5.619 -2.142,5.466 -2.802,5.346 -3.545,5.279 -4.292,5.224 -5.073,5.105 -5.898,4.951 -6.853,4.839 -7.804,4.691 -8.745,4.483 -9.692,4.288 -10.541,3.957 -11.3,3.511 -12.054,3.05 -12.666,2.439 -13.131,1.637 c -0.464,-0.804 -0.692,-1.836 -0.692,-3.104 0,-1.018 0.189,-1.9 0.575,-2.657 0.385,-0.754 0.902,-1.379 1.552,-1.871 0.653,-0.488 1.402,-0.866 2.252,-1.115 0.852,-0.252 1.742,-0.384 2.667,-0.384 1.226,0 2.494,0.208 3.811,0.6 1.312,0.405 2.422,1.035 3.327,1.909 0.515,-1.262 2.257,-2.071 4.183,-2.071 l 2.194,0 0.003,0 0.688,0 0,3.13 c -2.41,0 -2.885,0.721 -2.885,1.768"
             id="path76"
             style="fill:#000000;fill-opacity:1;fill-rule:nonzero;stroke:none" /></g><path
           d="m 222.264,51.92 -3.367,0 0,-3.186 3.367,0 0,3.186 z"
           id="path78"
           style="fill:#b8b8a2;fill-opacity:1;fill-rule:nonzero;stroke:none" /><path
           d="m 217.184,51.92 -3.369,0 0,-3.186 3.369,0 0,3.186 z"
           id="path80"
           style="fill:#b8b8a2;fill-opacity:1;fill-rule:nonzero;stroke:none" /><path
           d="m 448.704,48.849 3.364,0 0,3.195 -3.364,0 0,-3.195 z"
           id="path82"
           style="fill:#b8b8a2;fill-opacity:1;fill-rule:nonzero;stroke:none" /><g
           transform="translate(47.7811,42.5756)"
           id="g84"><path
             d="m 0,0 -9.602,0 0,8.396 -3.691,0 0,-21.095 3.691,0 0,9.514 9.602,0 0,-9.514 3.69,0 0,21.095 L 0,8.396 0,0 z"
             id="path86"
             style="fill:#b8b8a2;fill-opacity:1;fill-rule:nonzero;stroke:none" /></g><g
           transform="translate(66.371,35.559)"
           id="g88"><path
             d="m 0,0 c -0.17,-0.642 -0.43,-1.216 -0.785,-1.723 -0.352,-0.516 -0.807,-0.93 -1.358,-1.24 -0.551,-0.32 -1.203,-0.475 -1.952,-0.475 -0.745,0 -1.396,0.155 -1.949,0.475 -0.549,0.31 -1.002,0.724 -1.357,1.24 -0.355,0.507 -0.618,1.081 -0.784,1.723 -0.165,0.64 -0.249,1.297 -0.249,1.969 0,0.65 0.084,1.299 0.249,1.944 0.166,0.652 0.429,1.226 0.784,1.731 0.355,0.504 0.808,0.915 1.357,1.229 0.553,0.312 1.204,0.475 1.949,0.475 0.749,0 1.401,-0.163 1.952,-0.475 C -1.592,6.559 -1.137,6.148 -0.785,5.644 -0.43,5.139 -0.17,4.565 0,3.913 0.165,3.268 0.248,2.619 0.248,1.969 0.248,1.297 0.165,0.64 0,0 m 1.592,7.729 c -0.656,0.704 -1.466,1.266 -2.419,1.669 -0.957,0.403 -2.042,0.605 -3.268,0.605 -1.22,0 -2.305,-0.202 -3.262,-0.605 -0.957,-0.403 -1.763,-0.965 -2.42,-1.669 -0.662,-0.712 -1.162,-1.562 -1.51,-2.544 -0.341,-0.982 -0.517,-2.057 -0.517,-3.216 0,-1.179 0.176,-2.265 0.517,-3.247 0.348,-0.993 0.848,-1.84 1.51,-2.543 0.657,-0.712 1.463,-1.268 2.42,-1.671 0.957,-0.404 2.042,-0.605 3.262,-0.605 1.226,0 2.311,0.201 3.268,0.605 0.953,0.403 1.763,0.959 2.419,1.671 0.662,0.703 1.164,1.55 1.509,2.543 0.342,0.982 0.517,2.068 0.517,3.247 0,1.159 -0.175,2.234 -0.517,3.216 C 2.756,6.167 2.254,7.017 1.592,7.729"
             id="path90"
             style="fill:#b8b8a2;fill-opacity:1;fill-rule:nonzero;stroke:none" /></g><g
           transform="translate(73.8197,31.7221)"
           id="g92"><path
             d="m 0,0 c 0.628,-0.702 1.405,-1.252 2.32,-1.655 0.914,-0.404 1.975,-0.605 3.175,-0.605 1.969,0 3.55,0.523 4.741,1.579 1.192,1.053 1.944,2.578 2.258,4.565 l -3.364,0 C 8.97,2.775 8.57,1.928 7.934,1.316 7.294,0.706 6.482,0.399 5.495,0.399 4.765,0.399 4.144,0.549 3.633,0.858 3.121,1.158 2.702,1.557 2.377,2.052 2.054,2.547 1.819,3.107 1.668,3.738 1.524,4.368 1.447,4.998 1.447,5.63 c 0,1.158 0.139,2.097 0.412,2.819 0.28,0.717 0.621,1.281 1.036,1.685 0.413,0.403 0.868,0.679 1.359,0.829 0.49,0.143 0.956,0.222 1.392,0.222 0.942,0 1.725,-0.244 2.346,-0.731 C 8.612,9.978 8.989,9.26 9.13,8.319 l 3.364,0 c -0.077,0.941 -0.314,1.757 -0.707,2.452 -0.393,0.682 -0.9,1.259 -1.522,1.705 -0.619,0.456 -1.327,0.8 -2.127,1.019 C 7.34,13.722 6.497,13.84 5.614,13.84 4.352,13.84 3.256,13.628 2.32,13.205 1.383,12.78 0.602,12.202 -0.028,11.459 -0.659,10.725 -1.133,9.85 -1.447,8.847 -1.76,7.844 -1.92,6.769 -1.92,5.63 -1.92,4.503 -1.757,3.459 -1.433,2.496 -1.108,1.532 -0.629,0.7 0,0"
             id="path94"
             style="fill:#b8b8a2;fill-opacity:1;fill-rule:nonzero;stroke:none" /></g><g
           transform="translate(96.913,45.5619)"
           id="g96"><path
             d="m 0,0 c -1.003,0 -1.913,-0.232 -2.73,-0.696 -0.816,-0.466 -1.431,-1.039 -1.846,-1.722 l -0.063,0 0,7.827 -3.364,0 0,-21.095 3.364,0 0,9.008 c 0,0.555 0.092,1.074 0.27,1.571 0.177,0.487 0.424,0.915 0.74,1.276 0.314,0.372 0.695,0.654 1.149,0.86 0.454,0.206 0.964,0.316 1.538,0.316 1.004,0 1.743,-0.275 2.212,-0.814 C 1.745,-4.017 2,-4.883 2.043,-6.09 l 0,-9.596 3.365,0 0,10.486 c 0,1.736 -0.483,3.03 -1.447,3.898 C 2.992,-0.434 1.674,0 0,0"
             id="path98"
             style="fill:#b8b8a2;fill-opacity:1;fill-rule:nonzero;stroke:none" /></g><g
           transform="translate(106.8153,30.7797)"
           id="g100"><path
             d="m 0,0 c 0.604,-0.444 1.316,-0.779 2.135,-0.997 0.817,-0.216 1.711,-0.32 2.679,-0.32 0.788,0 1.586,0.087 2.395,0.268 0.811,0.177 1.544,0.454 2.206,0.855 0.662,0.396 1.199,0.904 1.613,1.536 0.413,0.63 0.622,1.394 0.622,2.304 0,0.746 -0.14,1.375 -0.429,1.892 -0.287,0.507 -0.661,0.93 -1.127,1.27 C 9.631,7.141 9.102,7.409 8.51,7.606 7.919,7.803 7.314,7.969 6.701,8.105 6.07,8.246 5.458,8.373 4.865,8.485 4.274,8.61 3.746,8.75 3.281,8.916 2.817,9.082 2.443,9.293 2.155,9.552 1.869,9.81 1.728,10.141 1.728,10.555 c 0,0.341 0.099,0.604 0.295,0.811 0.195,0.208 0.436,0.372 0.723,0.477 0.283,0.112 0.591,0.18 0.915,0.221 0.326,0.041 0.605,0.063 0.842,0.063 0.748,0 1.412,-0.145 1.992,-0.414 0.582,-0.28 0.951,-0.817 1.11,-1.624 l 3.515,0 c -0.1,0.842 -0.34,1.567 -0.725,2.167 -0.385,0.599 -0.866,1.091 -1.447,1.462 -0.581,0.372 -1.231,0.646 -1.95,0.811 -0.72,0.165 -1.47,0.253 -2.262,0.253 C 4.05,14.782 3.325,14.71 2.567,14.576 1.811,14.437 1.119,14.198 0.499,13.848 -0.12,13.506 -0.632,13.052 -1.038,12.493 -1.441,11.935 -1.643,11.235 -1.643,10.409 -1.643,9.645 -1.504,8.998 -1.229,8.47 -0.951,7.953 -0.584,7.524 -0.12,7.191 0.341,6.852 0.864,6.59 1.444,6.396 2.027,6.19 2.632,6.024 3.263,5.891 3.873,5.756 4.472,5.622 5.062,5.507 5.654,5.385 6.179,5.244 6.644,5.079 7.105,4.913 7.487,4.69 7.782,4.411 8.076,4.134 8.234,3.781 8.253,3.346 8.273,2.911 8.169,2.565 7.943,2.297 7.717,2.038 7.427,1.837 7.073,1.692 6.716,1.558 6.339,1.46 5.936,1.418 5.534,1.367 5.171,1.342 4.855,1.342 3.952,1.342 3.174,1.537 2.524,1.93 1.873,2.322 1.501,3.015 1.403,3.999 l -3.371,0 C -1.948,3.095 -1.765,2.308 -1.419,1.652 -1.074,0.994 -0.601,0.437 0,0"
             id="path102"
             style="fill:#b8b8a2;fill-opacity:1;fill-rule:nonzero;stroke:none" /></g><g
           transform="translate(132.348,31.0414)"
           id="g104"><path
             d="m 0,0 c 1.189,1.053 1.944,2.578 2.26,4.564 l -3.37,0 C -1.268,3.456 -1.665,2.608 -2.304,1.997 -2.947,1.387 -3.759,1.08 -4.74,1.08 c -0.731,0 -1.349,0.15 -1.863,0.459 -0.511,0.3 -0.93,0.698 -1.255,1.193 -0.327,0.496 -0.564,1.056 -0.708,1.687 -0.151,0.63 -0.224,1.26 -0.224,1.892 0,1.158 0.138,2.096 0.415,2.819 0.273,0.717 0.621,1.28 1.033,1.684 0.414,0.404 0.866,0.679 1.362,0.83 0.49,0.143 0.951,0.221 1.387,0.221 0.944,0 1.726,-0.243 2.346,-0.73 C -1.627,10.658 -1.246,9.941 -1.11,9 l 3.37,0 c -0.08,0.941 -0.316,1.757 -0.71,2.451 -0.394,0.683 -0.903,1.26 -1.523,1.705 -0.62,0.456 -1.329,0.801 -2.125,1.02 -0.797,0.226 -1.639,0.345 -2.526,0.345 -1.259,0 -2.361,-0.212 -3.295,-0.635 -0.935,-0.425 -1.718,-1.003 -2.348,-1.746 -0.631,-0.735 -1.101,-1.61 -1.418,-2.613 -0.314,-1.003 -0.47,-2.078 -0.47,-3.216 0,-1.127 0.16,-2.171 0.486,-3.134 0.326,-0.964 0.802,-1.796 1.433,-2.496 0.631,-0.702 1.401,-1.252 2.317,-1.656 0.917,-0.403 1.976,-0.604 3.179,-0.604 1.967,0 3.546,0.522 4.74,1.579"
             id="path106"
             style="fill:#b8b8a2;fill-opacity:1;fill-rule:nonzero;stroke:none" /></g><g
           transform="translate(150.6112,29.8764)"
           id="g108"><path
             d="m 0,0 0,10.485 c 0,1.737 -0.483,3.031 -1.447,3.899 -0.965,0.868 -2.284,1.302 -3.957,1.302 -1.005,0 -1.917,-0.233 -2.734,-0.697 -0.819,-0.466 -1.435,-1.039 -1.847,-1.721 l -0.058,0 0,7.827 -3.368,0 0,-21.095 3.368,0 0,9.008 c 0,0.555 0.087,1.074 0.264,1.57 0.179,0.487 0.422,0.915 0.739,1.276 0.314,0.373 0.699,0.655 1.153,0.861 0.453,0.206 0.967,0.315 1.535,0.315 1.004,0 1.744,-0.274 2.218,-0.813 0.47,-0.548 0.728,-1.414 0.766,-2.621 L -3.368,0 0,0 z"
             id="path110"
             style="fill:#b8b8a2;fill-opacity:1;fill-rule:nonzero;stroke:none" /></g><g
           transform="translate(167.3153,29.8764)"
           id="g112"><path
             d="m 0,0 0,15.272 -3.369,0 0,-8.862 C -3.369,5.821 -3.43,5.265 -3.559,4.758 -3.689,4.239 -3.901,3.799 -4.195,3.438 -4.491,3.075 -4.873,2.782 -5.349,2.564 -5.819,2.352 -6.408,2.245 -7.119,2.245 c -0.926,0 -1.646,0.278 -2.157,0.826 -0.514,0.547 -0.767,1.499 -0.767,2.833 l 0,9.368 -3.368,0 0,-9.688 c 0,-2.008 0.447,-3.511 1.344,-4.503 0.896,-0.998 2.351,-1.495 4.356,-1.495 0.848,0 1.68,0.232 2.497,0.697 0.816,0.458 1.433,1.072 1.845,1.847 l 0.061,0 0,-2.13 L 0,0 z"
             id="path114"
             style="fill:#b8b8a2;fill-opacity:1;fill-rule:nonzero;stroke:none" /></g><path
           d="m 174.085,50.971 -3.368,0 0,-21.095 3.368,0 0,21.095 z"
           id="path116"
           style="fill:#b8b8a2;fill-opacity:1;fill-rule:nonzero;stroke:none" /><g
           transform="translate(180.5467,40.4545)"
           id="g118"><path
             d="m 0,0 c 0.207,0.487 0.483,0.915 0.827,1.276 0.345,0.372 0.76,0.655 1.242,0.861 0.481,0.206 1.018,0.315 1.609,0.315 0.573,0 1.09,-0.119 1.55,-0.347 C 5.692,1.879 6.086,1.586 6.413,1.226 6.736,0.852 6.99,0.432 7.179,-0.061 c 0.187,-0.497 0.3,-1.003 0.338,-1.541 l -7.858,0 C -0.321,-1.023 -0.207,-0.496 0,0 M 6.146,-7.699 C 5.542,-8.122 4.752,-8.333 3.767,-8.333 c -0.709,0 -1.319,0.118 -1.832,0.365 -0.514,0.249 -0.935,0.575 -1.269,0.989 -0.334,0.413 -0.589,0.899 -0.753,1.448 -0.169,0.557 -0.254,1.126 -0.254,1.716 l 11.227,0 c 0.137,1.142 0.064,2.249 -0.22,3.325 C 10.378,0.584 9.923,1.529 9.291,2.358 8.661,3.186 7.868,3.852 6.914,4.351 5.957,4.855 4.881,5.107 3.678,5.107 2.536,5.107 1.512,4.891 0.605,4.457 -0.299,4.021 -1.073,3.439 -1.71,2.701 -2.351,1.962 -2.846,1.102 -3.189,0.13 c -0.345,-0.972 -0.517,-2.002 -0.517,-3.088 0,-1.179 0.162,-2.264 0.485,-3.247 0.326,-0.99 0.808,-1.83 1.45,-2.543 0.639,-0.709 1.422,-1.262 2.348,-1.655 0.926,-0.392 1.99,-0.589 3.19,-0.589 0.827,0 1.621,0.109 2.379,0.336 0.756,0.227 1.44,0.565 2.052,1.005 0.611,0.444 1.132,0.997 1.565,1.637 0.433,0.652 0.737,1.396 0.916,2.224 l -3.19,0 C 7.192,-6.639 6.748,-7.275 6.146,-7.699"
             id="path120"
             style="fill:#b8b8a2;fill-opacity:1;fill-rule:nonzero;stroke:none" /></g><g
           transform="translate(209.4501,45.1488)"
           id="g122"><path
             d="m 0,0 -2.863,0 0,1.562 c 0,0.631 0.164,1.054 0.487,1.271 0.324,0.218 0.713,0.326 1.166,0.326 0.334,0 0.625,-0.011 0.873,-0.042 C -0.092,3.086 0.137,3.04 0.354,2.979 l 0,2.636 c -0.491,0.135 -1.278,0.207 -2.362,0.207 -0.551,0 -1.076,-0.056 -1.58,-0.17 C -4.089,5.548 -4.539,5.331 -4.931,5.011 -5.326,4.678 -5.642,4.213 -5.877,3.613 -6.111,3.015 -6.231,2.234 -6.231,1.273 l 0,-1.273 -2.51,0 0,-2.511 2.51,0 0,-12.761 3.368,0 0,12.761 2.863,0 L 0,0 z"
             id="path124"
             style="fill:#b8b8a2;fill-opacity:1;fill-rule:nonzero;stroke:none" /></g><g
           transform="translate(219.5609,30.1596)"
           id="g126"><path
             d="m 0,0 c 0.818,0.458 1.433,1.072 1.848,1.847 l 0.056,0 0,-2.13 3.31,0 0,15.272 -3.366,0 0,-8.862 C 1.848,5.538 1.782,4.981 1.654,4.475 1.527,3.956 1.317,3.516 1.021,3.154 0.726,2.792 0.34,2.499 -0.132,2.281 -0.604,2.069 -1.196,1.962 -1.906,1.962 -2.831,1.962 -3.548,2.24 -4.061,2.788 -4.572,3.335 -4.83,4.287 -4.83,5.621 l 0,9.368 -3.366,0 0,-9.688 c 0,-2.008 0.448,-3.511 1.344,-4.503 0.896,-0.998 2.347,-1.495 4.358,-1.495 0.845,0 1.679,0.232 2.494,0.697"
             id="path128"
             style="fill:#b8b8a2;fill-opacity:1;fill-rule:nonzero;stroke:none" /></g><g
           transform="translate(231.5135,37.1449)"
           id="g130"><path
             d="M 0,0 C 0,0.847 0.108,1.593 0.325,2.245 0.541,2.896 0.837,3.439 1.21,3.884 1.583,4.327 2.022,4.658 2.524,4.886 3.028,5.114 3.563,5.225 4.135,5.225 4.372,5.225 4.612,5.209 4.859,5.185 5.104,5.156 5.346,5.118 5.582,5.077 l 0,3.247 C 5.424,8.345 5.271,8.365 5.125,8.386 4.978,8.406 4.707,8.417 4.314,8.417 3.8,8.417 3.297,8.314 2.805,8.117 2.312,7.921 1.864,7.66 1.461,7.337 1.058,7.017 0.715,6.65 0.429,6.258 0.141,5.864 -0.051,5.462 -0.149,5.047 l -0.057,0 0,2.957 -3.163,0 0,-15.272 3.369,0 L 0,0 z"
             id="path132"
             style="fill:#b8b8a2;fill-opacity:1;fill-rule:nonzero;stroke:none" /></g><g
           transform="translate(249.517,35.1772)"
           id="g134"><path
             d="M 0,0 C 0.147,0.309 0.35,0.554 0.605,0.744 0.861,0.929 1.156,1.074 1.49,1.18 1.827,1.29 2.171,1.374 2.526,1.431 3.272,1.574 4.023,1.674 4.771,1.746 5.519,1.808 6.149,2.01 6.66,2.351 l 0,-2.512 C 6.66,-0.691 6.532,-1.14 6.277,-1.507 6.021,-1.873 5.702,-2.168 5.315,-2.406 4.933,-2.644 4.524,-2.809 4.091,-2.912 3.659,-3.006 3.252,-3.056 2.878,-3.056 c -0.294,0 -0.624,0.031 -0.987,0.092 -0.366,0.052 -0.7,0.161 -1.005,0.305 -0.307,0.145 -0.566,0.346 -0.781,0.605 -0.219,0.258 -0.327,0.568 -0.327,0.947 0,0.427 0.075,0.806 0.222,1.107 m 1.638,-5.715 c 0.906,0 1.846,0.146 2.823,0.445 0.974,0.29 1.796,0.766 2.465,1.418 0.137,-0.692 0.433,-1.171 0.886,-1.449 0.455,-0.278 1.024,-0.414 1.714,-0.414 0.138,0 0.306,0.011 0.502,0.031 0.198,0.021 0.395,0.048 0.592,0.083 0.196,0.042 0.387,0.087 0.575,0.139 0.186,0.046 0.339,0.089 0.458,0.13 l 0,2.337 c -0.176,-0.041 -0.336,-0.061 -0.472,-0.061 l -0.355,0 c -0.317,0 -0.529,0.092 -0.637,0.269 -0.107,0.175 -0.161,0.465 -0.161,0.879 l 0,7.858 c 0,0.807 -0.176,1.495 -0.531,2.054 C 9.141,8.571 8.674,9.02 8.094,9.383 7.512,9.734 6.857,9.992 6.129,10.147 5.399,10.302 4.662,10.385 3.915,10.385 3.066,10.385 2.239,10.302 1.432,10.147 0.624,9.992 -0.098,9.714 -0.739,9.32 -1.38,8.928 -1.905,8.401 -2.318,7.761 -2.733,7.108 -2.968,6.29 -3.029,5.302 l 3.369,0 C 0.418,6.127 0.762,6.74 1.373,7.14 1.983,7.532 2.761,7.729 3.708,7.729 4.042,7.729 4.396,7.703 4.771,7.651 5.145,7.6 5.484,7.508 5.792,7.357 6.096,7.208 6.352,6.994 6.558,6.725 6.764,6.445 6.868,6.094 6.868,5.66 6.868,5.164 6.744,4.797 6.499,4.549 6.251,4.301 5.917,4.119 5.494,4.006 5.072,3.882 4.584,3.804 4.033,3.752 3.479,3.701 2.9,3.623 2.291,3.5 1.579,3.427 0.875,3.308 0.178,3.164 -0.523,3.015 -1.153,2.773 -1.714,2.434 -2.276,2.102 -2.727,1.637 -3.072,1.048 -3.417,0.46 -3.587,-0.306 -3.587,-1.258 c 0,-0.746 0.14,-1.401 0.427,-1.96 0.286,-0.557 0.668,-1.023 1.151,-1.384 0.484,-0.375 1.038,-0.643 1.668,-0.83 0.631,-0.193 1.291,-0.283 1.979,-0.283"
             id="path136"
             style="fill:#b8b8a2;fill-opacity:1;fill-rule:nonzero;stroke:none" /></g><g
           transform="translate(271.2045,45.5619)"
           id="g138"><path
             d="m 0,0 c -1.004,0 -1.919,-0.243 -2.749,-0.728 -0.826,-0.476 -1.495,-1.142 -2.006,-1.99 l -0.06,0.063 0,2.242 -3.189,0 0,-15.273 3.365,0 0,9.008 c 0,0.555 0.091,1.074 0.266,1.571 0.18,0.487 0.425,0.915 0.741,1.276 0.315,0.372 0.696,0.654 1.15,0.86 0.454,0.206 0.965,0.316 1.537,0.316 1.005,0 1.743,-0.275 2.213,-0.814 0.476,-0.548 0.729,-1.414 0.771,-2.621 l 0,-9.596 3.366,0 0,10.486 c 0,1.736 -0.483,3.03 -1.446,3.898 C 2.992,-0.434 1.673,0 0,0"
             id="path140"
             style="fill:#b8b8a2;fill-opacity:1;fill-rule:nonzero;stroke:none" /></g><g
           transform="translate(290.5033,35.9213)"
           id="g142"><path
             d="m 0,0 c -0.149,-0.643 -0.386,-1.217 -0.711,-1.719 -0.325,-0.506 -0.748,-0.909 -1.269,-1.209 -0.523,-0.31 -1.157,-0.46 -1.905,-0.46 -0.71,0 -1.314,0.146 -1.818,0.445 -0.503,0.291 -0.915,0.68 -1.239,1.147 -0.326,0.478 -0.568,1.01 -0.724,1.609 -0.158,0.609 -0.238,1.223 -0.238,1.853 0,0.625 0.068,1.26 0.208,1.9 0.139,0.643 0.365,1.21 0.679,1.716 0.315,0.504 0.727,0.914 1.241,1.229 0.511,0.312 1.141,0.474 1.891,0.474 0.727,0 1.353,-0.144 1.876,-0.414 0.52,-0.28 0.943,-0.652 1.269,-1.128 C -0.415,4.97 -0.175,4.431 -0.017,3.82 0.141,3.21 0.219,2.579 0.219,1.927 0.219,1.275 0.147,0.636 0,0 m -8.362,-11.069 c 0.64,-0.372 1.35,-0.641 2.127,-0.796 0.779,-0.155 1.553,-0.239 2.32,-0.239 2.423,0 4.278,0.575 5.566,1.701 1.292,1.135 1.936,2.849 1.936,5.155 l 0,14.476 -3.368,0 0,-2.099 -0.056,0 c -0.435,0.869 -1.056,1.504 -1.861,1.907 -0.81,0.403 -1.697,0.605 -2.662,0.605 -1.082,0 -2.052,-0.206 -2.908,-0.62 -0.858,-0.414 -1.581,-0.968 -2.171,-1.669 -0.592,-0.704 -1.044,-1.517 -1.359,-2.436 -0.315,-0.93 -0.472,-1.902 -0.472,-2.928 0,-1.105 0.128,-2.138 0.384,-3.099 0.257,-0.964 0.664,-1.817 1.225,-2.561 0.561,-0.733 1.27,-1.313 2.126,-1.736 0.857,-0.425 1.896,-0.637 3.118,-0.637 0.944,0 1.826,0.237 2.644,0.709 0.815,0.472 1.459,1.132 1.936,1.98 l 0.056,0 0,-2.337 c 0,-1.261 -0.314,-2.222 -0.945,-2.894 -0.629,-0.671 -1.625,-1.005 -2.982,-1.005 -0.434,0 -0.848,0.027 -1.241,0.078 -0.394,0.047 -0.754,0.157 -1.078,0.322 -0.326,0.167 -0.607,0.398 -0.842,0.697 -0.236,0.29 -0.405,0.679 -0.501,1.148 l -3.369,0 c 0.079,-0.882 0.334,-1.633 0.767,-2.245 0.434,-0.609 0.972,-1.103 1.61,-1.477"
             id="path144"
             style="fill:#b8b8a2;fill-opacity:1;fill-rule:nonzero;stroke:none" /></g><g
           transform="translate(300.411,40.4545)"
           id="g146"><path
             d="m 0,0 c 0.206,0.487 0.483,0.915 0.827,1.276 0.344,0.372 0.759,0.655 1.242,0.861 0.482,0.206 1.018,0.315 1.61,0.315 0.57,0 1.087,-0.119 1.55,-0.347 0.463,-0.226 0.857,-0.519 1.182,-0.879 0.324,-0.374 0.58,-0.794 0.767,-1.287 0.186,-0.497 0.3,-1.003 0.338,-1.541 l -7.857,0 C -0.32,-1.023 -0.207,-0.496 0,0 m -1.772,-8.748 c 0.639,-0.709 1.421,-1.262 2.348,-1.655 0.925,-0.392 1.989,-0.589 3.191,-0.589 0.827,0 1.619,0.109 2.378,0.336 0.756,0.227 1.44,0.565 2.052,1.005 0.612,0.444 1.133,0.997 1.566,1.637 0.433,0.652 0.737,1.396 0.916,2.224 l -3.191,0 C 7.194,-6.639 6.746,-7.275 6.145,-7.699 5.542,-8.122 4.751,-8.333 3.767,-8.333 c -0.709,0 -1.32,0.118 -1.831,0.365 -0.514,0.249 -0.936,0.575 -1.271,0.989 -0.334,0.413 -0.586,0.899 -0.753,1.448 -0.169,0.557 -0.253,1.126 -0.253,1.716 l 11.226,0 c 0.137,1.142 0.065,2.249 -0.221,3.325 C 10.378,0.584 9.921,1.529 9.29,2.358 8.66,3.186 7.867,3.852 6.913,4.351 5.958,4.855 4.879,5.107 3.679,5.107 2.536,5.107 1.513,4.891 0.605,4.457 -0.3,4.021 -1.073,3.439 -1.711,2.701 -2.355,1.962 -2.846,1.102 -3.19,0.13 c -0.344,-0.972 -0.517,-2.002 -0.517,-3.088 0,-1.179 0.163,-2.264 0.487,-3.247 0.325,-0.99 0.807,-1.83 1.448,-2.543"
             id="path148"
             style="fill:#b8b8a2;fill-opacity:1;fill-rule:nonzero;stroke:none" /></g><g
           transform="translate(323.0975,41.2192)"
           id="g150"><path
             d="m 0,0 2.836,-11.343 3.456,0 4.786,15.273 -3.427,0 -3.101,-11.406 -0.06,0 -2.748,11.406 -3.396,0 -2.864,-11.406 -0.059,0 -2.984,11.406 -3.575,0 4.725,-15.273 3.546,0 L -0.06,0 0,0 z"
             id="path152"
             style="fill:#b8b8a2;fill-opacity:1;fill-rule:nonzero;stroke:none" /></g><g
           transform="translate(345.1454,35.016)"
           id="g154"><path
             d="m 0,0 c 0,-0.53 -0.125,-0.978 -0.384,-1.346 -0.257,-0.366 -0.574,-0.661 -0.956,-0.899 -0.386,-0.237 -0.795,-0.402 -1.228,-0.506 -0.433,-0.094 -0.835,-0.143 -1.21,-0.143 -0.296,0 -0.627,0.03 -0.992,0.091 -0.365,0.052 -0.696,0.161 -1.004,0.305 -0.304,0.146 -0.564,0.347 -0.782,0.606 -0.217,0.257 -0.325,0.567 -0.325,0.947 0,0.427 0.073,0.805 0.222,1.106 0.15,0.309 0.35,0.554 0.605,0.744 0.255,0.185 0.554,0.33 0.885,0.436 0.337,0.11 0.681,0.194 1.032,0.251 0.751,0.143 1.5,0.243 2.247,0.315 0.75,0.062 1.38,0.264 1.89,0.605 L 0,0 z m 4.168,-2.894 c -0.316,0 -0.528,0.091 -0.636,0.268 -0.107,0.175 -0.162,0.465 -0.162,0.879 l 0,7.858 c 0,0.807 -0.175,1.496 -0.534,2.054 -0.353,0.568 -0.82,1.017 -1.401,1.379 -0.582,0.352 -1.239,0.609 -1.963,0.765 -0.733,0.154 -1.466,0.237 -2.218,0.237 -0.847,0 -1.674,-0.083 -2.481,-0.237 C -6.035,10.153 -6.758,9.875 -7.398,9.482 -8.039,9.089 -8.562,8.563 -8.977,7.922 -9.389,7.27 -9.628,6.451 -9.688,5.463 l 3.369,0 c 0.076,0.825 0.424,1.438 1.034,1.838 0.611,0.392 1.386,0.59 2.333,0.59 0.337,0 0.689,-0.027 1.062,-0.079 0.376,-0.051 0.716,-0.143 1.021,-0.293 0.305,-0.15 0.561,-0.364 0.767,-0.633 C 0.105,6.607 0.206,6.255 0.206,5.821 0.206,5.325 0.087,4.958 -0.16,4.71 -0.409,4.462 -0.739,4.28 -1.164,4.167 -1.588,4.043 -2.078,3.965 -2.625,3.913 -3.179,3.862 -3.761,3.784 -4.372,3.661 -5.077,3.588 -5.784,3.469 -6.481,3.325 c -0.7,-0.149 -1.33,-0.39 -1.89,-0.73 -0.563,-0.332 -1.014,-0.797 -1.36,-1.386 -0.346,-0.588 -0.516,-1.353 -0.516,-2.306 0,-0.746 0.14,-1.401 0.428,-1.96 0.285,-0.557 0.668,-1.023 1.15,-1.383 0.483,-0.375 1.04,-0.644 1.67,-0.83 0.63,-0.194 1.289,-0.284 1.979,-0.284 0.905,0 1.847,0.146 2.823,0.446 0.971,0.289 1.794,0.765 2.466,1.418 0.134,-0.693 0.434,-1.172 0.886,-1.45 0.451,-0.278 1.023,-0.414 1.709,-0.414 0.141,0 0.31,0.011 0.506,0.032 0.196,0.02 0.394,0.047 0.59,0.083 0.196,0.042 0.387,0.087 0.574,0.138 0.187,0.046 0.342,0.089 0.459,0.13 l 0,2.337 C 4.817,-2.875 4.658,-2.894 4.519,-2.894 l -0.351,0 z"
             id="path156"
             style="fill:#b8b8a2;fill-opacity:1;fill-rule:nonzero;stroke:none" /></g><g
           transform="translate(355.5389,38.8842)"
           id="g158"><path
             d="M 0,0 C 0,0.555 0.083,1.074 0.263,1.57 0.44,2.058 0.684,2.485 1.002,2.847 1.314,3.219 1.699,3.501 2.151,3.707 2.604,3.913 3.119,4.022 3.69,4.022 4.692,4.022 5.432,3.748 5.904,3.209 6.379,2.661 6.636,1.795 6.674,0.588 l 0,-9.596 3.366,0 0,10.485 C 10.04,3.214 9.557,4.508 8.593,5.376 7.631,6.244 6.307,6.678 4.633,6.678 3.629,6.678 2.716,6.435 1.888,5.95 1.061,5.474 0.394,4.808 -0.12,3.96 l -0.06,0.062 0,2.243 -3.191,0 0,-15.273 3.371,0 L 0,0 z"
             id="path160"
             style="fill:#b8b8a2;fill-opacity:1;fill-rule:nonzero;stroke:none" /></g><g
           transform="translate(379.8739,35.559)"
           id="g162"><path
             d="m 0,0 c -0.167,-0.642 -0.42,-1.216 -0.769,-1.723 -0.345,-0.516 -0.79,-0.93 -1.328,-1.24 -0.543,-0.32 -1.189,-0.475 -1.939,-0.475 -0.724,0 -1.354,0.144 -1.888,0.444 -0.532,0.29 -0.972,0.689 -1.312,1.179 -0.348,0.495 -0.601,1.054 -0.769,1.685 -0.17,0.631 -0.251,1.272 -0.251,1.923 0,0.682 0.071,1.36 0.223,2.022 0.145,0.662 0.394,1.251 0.734,1.769 0.344,0.526 0.786,0.95 1.334,1.273 0.538,0.326 1.205,0.491 1.991,0.491 1.301,0 2.329,-0.475 3.087,-1.419 C -0.13,4.979 0.251,3.665 0.251,1.969 0.251,1.297 0.167,0.64 0,0 m 0.133,7.606 -0.06,0 c -0.256,0.413 -0.577,0.78 -0.96,1.079 -0.382,0.31 -0.802,0.558 -1.255,0.758 -0.457,0.199 -0.927,0.338 -1.419,0.424 -0.494,0.089 -0.973,0.136 -1.448,0.136 -0.825,0 -1.638,-0.149 -2.435,-0.459 C -8.243,9.241 -8.95,8.764 -9.573,8.112 -10.192,7.461 -10.69,6.633 -11.065,5.63 -11.44,4.627 -11.626,3.438 -11.626,2.052 c 0,-1.138 0.147,-2.207 0.444,-3.201 0.296,-0.993 0.739,-1.856 1.33,-2.586 0.59,-0.726 1.333,-1.301 2.231,-1.726 0.892,-0.424 1.941,-0.636 3.144,-0.636 0.966,0 1.878,0.193 2.748,0.574 0.868,0.385 1.528,1.021 1.98,1.908 l 0.057,0 0,-2.068 3.194,0 0,21.095 -3.369,0 0,-7.806 z"
             id="path164"
             style="fill:#b8b8a2;fill-opacity:1;fill-rule:nonzero;stroke:none" /></g><g
           transform="translate(394.284,32.5024)"
           id="g166"><path
             d="m 0,0 c -0.237,-0.062 -0.475,-0.087 -0.714,-0.097 -0.237,-0.011 -0.472,-0.015 -0.706,-0.015 -0.375,0 -0.671,0.042 -0.889,0.128 -0.215,0.093 -0.377,0.222 -0.487,0.399 -0.106,0.175 -0.179,0.392 -0.206,0.649 -0.028,0.259 -0.044,0.559 -0.044,0.919 l 0,8.153 3.046,0 0,2.51 -3.046,0 0,4.581 -3.368,0 0,-4.581 -2.543,0 0,-2.51 2.543,0 0,-9.009 c 0.022,-0.631 0.084,-1.195 0.192,-1.686 0.108,-0.495 0.314,-0.902 0.619,-1.223 0.307,-0.33 0.728,-0.571 1.275,-0.746 0.537,-0.164 1.254,-0.243 2.138,-0.243 0.375,0 0.739,0.02 1.091,0.051 0.359,0.043 0.721,0.084 1.099,0.125 L 0,0 z"
             id="path168"
             style="fill:#b8b8a2;fill-opacity:1;fill-rule:nonzero;stroke:none" /></g><g
           transform="translate(399.1688,40.4545)"
           id="g170"><path
             d="M 0,0 C 0.206,0.487 0.484,0.915 0.827,1.276 1.17,1.648 1.584,1.931 2.067,2.137 2.554,2.343 3.086,2.452 3.678,2.452 4.249,2.452 4.765,2.333 5.229,2.105 5.69,1.879 6.086,1.586 6.411,1.226 6.734,0.852 6.988,0.432 7.177,-0.061 7.365,-0.558 7.48,-1.064 7.519,-1.602 l -7.856,0 C -0.319,-1.023 -0.206,-0.496 0,0 m -1.77,-8.748 c 0.638,-0.709 1.424,-1.262 2.345,-1.655 0.927,-0.392 1.992,-0.589 3.194,-0.589 0.827,0 1.617,0.109 2.376,0.336 0.759,0.227 1.44,0.565 2.052,1.005 0.61,0.444 1.134,0.997 1.568,1.637 0.433,0.652 0.736,1.396 0.914,2.224 l -3.189,0 C 7.19,-6.639 6.744,-7.275 6.145,-7.699 5.541,-8.122 4.749,-8.333 3.769,-8.333 c -0.713,0 -1.324,0.118 -1.833,0.365 -0.515,0.249 -0.939,0.575 -1.271,0.989 -0.334,0.413 -0.584,0.899 -0.752,1.448 -0.169,0.557 -0.25,1.126 -0.25,1.716 l 11.224,0 c 0.137,1.142 0.063,2.249 -0.223,3.325 C 10.383,0.584 9.92,1.529 9.288,2.358 8.658,3.186 7.868,3.852 6.913,4.351 5.954,4.855 4.877,5.107 3.678,5.107 2.539,5.107 1.514,4.891 0.605,4.457 -0.3,4.021 -1.073,3.439 -1.713,2.701 -2.352,1.962 -2.845,1.102 -3.189,0.13 c -0.347,-0.972 -0.519,-2.002 -0.519,-3.088 0,-1.179 0.162,-2.264 0.492,-3.247 0.32,-0.99 0.806,-1.83 1.446,-2.543"
             id="path172"
             style="fill:#b8b8a2;fill-opacity:1;fill-rule:nonzero;stroke:none" /></g><g
           transform="translate(432.9764,46.0063)"
           id="g174"><path
             d="m 0,0 4.225,-16.13 3.75,0 5.819,21.095 -3.751,0 -3.929,-16.13 -0.055,0 -4.136,16.13 -3.784,0 -4.251,-16.13 -0.061,0 -3.81,16.13 -3.75,0 5.553,-21.095 3.809,0 L -0.061,0 0,0 z"
             id="path176"
             style="fill:#b8b8a2;fill-opacity:1;fill-rule:nonzero;stroke:none" /></g><path
           d="m 448.704,29.876 3.364,0 0,15.272 -3.364,0 0,-15.272 z"
           id="path178"
           style="fill:#b8b8a2;fill-opacity:1;fill-rule:nonzero;stroke:none" /><g
           transform="translate(466.7938,37.5873)"
           id="g180"><path
             d="m 0,0 c -0.462,0.333 -0.988,0.602 -1.579,0.799 -0.595,0.196 -1.198,0.362 -1.81,0.498 -0.632,0.142 -1.245,0.269 -1.837,0.381 -0.591,0.125 -1.118,0.264 -1.585,0.43 -0.466,0.166 -0.842,0.377 -1.126,0.636 -0.287,0.258 -0.43,0.589 -0.43,1.003 0,0.341 0.097,0.605 0.296,0.812 0.196,0.208 0.437,0.372 0.722,0.476 0.287,0.113 0.593,0.181 0.915,0.222 0.33,0.041 0.609,0.062 0.843,0.062 0.749,0 1.413,-0.144 1.996,-0.414 0.58,-0.28 0.949,-0.817 1.104,-1.624 l 3.515,0 C 0.927,4.123 0.689,4.849 0.302,5.448 c -0.382,0.6 -0.863,1.091 -1.448,1.462 -0.579,0.372 -1.229,0.647 -1.949,0.812 -0.718,0.165 -1.47,0.253 -2.258,0.253 -0.69,0 -1.414,-0.073 -2.172,-0.206 -0.758,-0.14 -1.449,-0.378 -2.066,-0.729 -0.621,-0.342 -1.136,-0.796 -1.54,-1.354 -0.403,-0.559 -0.603,-1.258 -0.603,-2.084 0,-0.765 0.137,-1.411 0.413,-1.94 0.274,-0.516 0.647,-0.945 1.109,-1.278 0.461,-0.34 0.986,-0.602 1.565,-0.796 0.58,-0.205 1.184,-0.371 1.814,-0.505 0.614,-0.135 1.214,-0.269 1.804,-0.384 0.592,-0.122 1.117,-0.262 1.582,-0.428 0.462,-0.166 0.845,-0.388 1.137,-0.667 0.296,-0.278 0.451,-0.63 0.472,-1.066 0.02,-0.434 -0.084,-0.78 -0.309,-1.049 -0.228,-0.259 -0.518,-0.46 -0.874,-0.604 -0.354,-0.135 -0.733,-0.233 -1.135,-0.275 -0.406,-0.05 -0.764,-0.076 -1.078,-0.076 -0.906,0 -1.685,0.196 -2.333,0.588 -0.651,0.393 -1.024,1.085 -1.124,2.069 l -3.368,0 c 0.017,-0.904 0.203,-1.691 0.546,-2.346 0.346,-0.658 0.821,-1.216 1.424,-1.653 0.6,-0.444 1.311,-0.779 2.13,-0.997 0.821,-0.215 1.713,-0.32 2.679,-0.32 0.79,0 1.588,0.087 2.398,0.269 0.809,0.176 1.544,0.454 2.204,0.854 0.66,0.397 1.2,0.904 1.614,1.536 0.416,0.63 0.623,1.395 0.623,2.304 0,0.746 -0.145,1.376 -0.429,1.892 C 0.841,-0.763 0.468,-0.34 0,0"
             id="path182"
             style="fill:#b8b8a2;fill-opacity:1;fill-rule:nonzero;stroke:none" /></g><g
           transform="translate(479.1493,32.4721)"
           id="g184"><path
             d="m 0,0 c -0.35,-0.135 -0.73,-0.232 -1.133,-0.274 -0.406,-0.051 -0.764,-0.077 -1.077,-0.077 -0.907,0 -1.686,0.196 -2.338,0.588 -0.648,0.393 -1.025,1.085 -1.121,2.07 l -3.367,0 c 0.019,-0.905 0.202,-1.692 0.546,-2.347 0.346,-0.658 0.819,-1.216 1.423,-1.652 0.603,-0.445 1.312,-0.78 2.13,-0.997 0.818,-0.216 1.714,-0.321 2.68,-0.321 0.788,0 1.588,0.087 2.399,0.269 0.809,0.177 1.543,0.454 2.206,0.854 0.66,0.397 1.197,0.905 1.613,1.536 0.413,0.63 0.621,1.395 0.621,2.304 0,0.746 -0.146,1.376 -0.432,1.893 C 3.864,4.353 3.488,4.775 3.024,5.115 2.563,5.448 2.034,5.717 1.439,5.914 0.849,6.11 0.245,6.276 -0.365,6.412 -0.998,6.554 -1.611,6.681 -2.2,6.793 -2.795,6.918 -3.324,7.058 -3.788,7.224 -4.251,7.39 -4.628,7.601 -4.914,7.859 -5.2,8.117 -5.345,8.448 -5.345,8.862 c 0,0.341 0.1,0.605 0.297,0.812 0.196,0.208 0.439,0.372 0.721,0.476 0.288,0.113 0.594,0.181 0.919,0.222 0.324,0.041 0.605,0.063 0.842,0.063 0.747,0 1.412,-0.145 1.994,-0.414 C 0.006,9.74 0.376,9.203 0.534,8.396 l 3.515,0 c -0.1,0.842 -0.341,1.568 -0.722,2.168 -0.384,0.599 -0.868,1.09 -1.449,1.461 -0.578,0.372 -1.231,0.647 -1.949,0.812 -0.719,0.165 -1.472,0.253 -2.258,0.253 -0.687,0 -1.415,-0.072 -2.173,-0.206 -0.759,-0.14 -1.448,-0.378 -2.067,-0.729 -0.621,-0.341 -1.134,-0.796 -1.538,-1.354 -0.404,-0.559 -0.604,-1.258 -0.604,-2.084 0,-0.765 0.138,-1.411 0.412,-1.94 C -8.024,6.261 -7.655,5.832 -7.19,5.499 -6.724,5.159 -6.204,4.897 -5.624,4.703 -5.043,4.498 -4.439,4.332 -3.81,4.198 -3.195,4.064 -2.594,3.93 -2.004,3.814 -1.414,3.692 -0.888,3.552 -0.427,3.387 0.037,3.221 0.415,2.998 0.714,2.719 1.008,2.441 1.165,2.089 1.186,1.653 1.203,1.219 1.104,0.873 0.876,0.605 0.647,0.346 0.356,0.145 0,0"
             id="path186"
             style="fill:#b8b8a2;fill-opacity:1;fill-rule:nonzero;stroke:none" /></g><g
           transform="translate(489.1483,40.4545)"
           id="g188"><path
             d="M 0,0 C 0.205,0.487 0.482,0.915 0.827,1.276 1.172,1.648 1.586,1.931 2.068,2.137 2.55,2.343 3.089,2.452 3.682,2.452 4.249,2.452 4.767,2.333 5.229,2.105 5.691,1.879 6.084,1.586 6.412,1.226 6.735,0.852 6.992,0.432 7.182,-0.061 7.368,-0.558 7.478,-1.064 7.516,-1.602 l -7.856,0 C -0.32,-1.023 -0.207,-0.496 0,0 m 0.578,-10.403 c 0.923,-0.392 1.987,-0.589 3.189,-0.589 0.826,0 1.621,0.109 2.38,0.336 0.754,0.227 1.441,0.565 2.052,1.005 0.609,0.444 1.13,0.997 1.563,1.637 0.433,0.652 0.741,1.396 0.92,2.224 l -3.193,0 C 7.197,-6.639 6.747,-7.275 6.147,-7.699 5.545,-8.122 4.751,-8.333 3.767,-8.333 c -0.706,0 -1.317,0.118 -1.832,0.365 -0.511,0.249 -0.933,0.575 -1.271,0.989 -0.334,0.413 -0.586,0.899 -0.752,1.448 -0.168,0.557 -0.252,1.126 -0.252,1.716 l 11.228,0 c 0.135,1.142 0.061,2.249 -0.222,3.325 C 10.38,0.584 9.922,1.529 9.29,2.358 8.66,3.186 7.868,3.852 6.913,4.351 5.959,4.855 4.88,5.107 3.682,5.107 2.536,5.107 1.511,4.891 0.607,4.457 -0.301,4.021 -1.07,3.439 -1.713,2.701 -2.354,1.962 -2.846,1.102 -3.191,0.13 c -0.341,-0.972 -0.516,-2.002 -0.516,-3.088 0,-1.179 0.163,-2.264 0.485,-3.247 0.327,-0.99 0.808,-1.83 1.449,-2.543 0.64,-0.709 1.423,-1.262 2.351,-1.655"
             id="path190"
             style="fill:#b8b8a2;fill-opacity:1;fill-rule:nonzero;stroke:none" /></g><g
           transform="translate(510.5731,45.5619)"
           id="g192"><path
             d="m 0,0 c -1.003,0 -1.92,-0.243 -2.746,-0.728 -0.829,-0.476 -1.497,-1.142 -2.007,-1.99 l -0.062,0.063 0,2.242 -3.189,0 0,-15.273 3.366,0 0,9.008 c 0,0.555 0.091,1.074 0.267,1.571 0.177,0.487 0.424,0.915 0.739,1.276 0.318,0.372 0.698,0.654 1.154,0.86 0.452,0.206 0.961,0.316 1.534,0.316 1.004,0 1.744,-0.275 2.216,-0.814 0.472,-0.548 0.727,-1.414 0.77,-2.621 l 0,-9.596 3.365,0 0,10.486 c 0,1.736 -0.482,3.03 -1.447,3.898 C 2.992,-0.434 1.674,0 0,0"
             id="path194"
             style="fill:#b8b8a2;fill-opacity:1;fill-rule:nonzero;stroke:none" /></g><g
           transform="translate(530.5682,37.5873)"
           id="g196"><path
             d="m 0,0 c -0.464,0.333 -0.991,0.602 -1.585,0.799 -0.592,0.196 -1.193,0.362 -1.806,0.498 -0.632,0.142 -1.248,0.269 -1.837,0.381 -0.592,0.125 -1.12,0.264 -1.582,0.43 -0.467,0.166 -0.841,0.377 -1.129,0.636 -0.288,0.258 -0.431,0.589 -0.431,1.003 0,0.341 0.101,0.605 0.297,0.812 0.196,0.208 0.439,0.372 0.722,0.476 0.288,0.113 0.593,0.181 0.918,0.222 0.324,0.041 0.605,0.062 0.842,0.062 0.746,0 1.411,-0.144 1.993,-0.414 0.581,-0.28 0.95,-0.817 1.109,-1.624 l 3.512,0 C 0.925,4.123 0.685,4.849 0.302,5.448 -0.084,6.048 -0.565,6.539 -1.147,6.91 -1.728,7.282 -2.378,7.557 -3.096,7.722 -3.815,7.887 -4.567,7.975 -5.354,7.975 -6.046,7.975 -6.768,7.902 -7.526,7.769 -8.285,7.629 -8.975,7.391 -9.594,7.04 -10.215,6.698 -10.725,6.244 -11.13,5.686 c -0.405,-0.559 -0.606,-1.258 -0.606,-2.084 0,-0.765 0.137,-1.411 0.412,-1.94 0.276,-0.516 0.648,-0.945 1.109,-1.278 0.463,-0.34 0.987,-0.602 1.566,-0.796 0.582,-0.205 1.187,-0.371 1.817,-0.505 0.611,-0.135 1.21,-0.269 1.801,-0.384 0.592,-0.122 1.117,-0.262 1.583,-0.428 0.46,-0.166 0.84,-0.388 1.135,-0.667 0.296,-0.278 0.452,-0.63 0.471,-1.066 0.02,-0.434 -0.083,-0.78 -0.31,-1.049 -0.226,-0.259 -0.516,-0.46 -0.87,-0.604 -0.355,-0.135 -0.733,-0.233 -1.136,-0.275 -0.405,-0.05 -0.765,-0.076 -1.079,-0.076 -0.906,0 -1.683,0.196 -2.332,0.588 -0.652,0.393 -1.026,1.085 -1.124,2.069 l -3.37,0 c 0.019,-0.904 0.204,-1.691 0.549,-2.346 0.347,-0.658 0.821,-1.216 1.422,-1.653 0.604,-0.444 1.311,-0.779 2.131,-0.997 0.819,-0.215 1.711,-0.32 2.679,-0.32 0.789,0 1.589,0.087 2.4,0.269 0.809,0.176 1.54,0.454 2.202,0.854 0.664,0.397 1.201,0.904 1.615,1.536 0.415,0.63 0.622,1.395 0.622,2.304 0,0.746 -0.144,1.376 -0.431,1.892 C 0.841,-0.763 0.466,-0.34 0,0"
             id="path198"
             style="fill:#b8b8a2;fill-opacity:1;fill-rule:nonzero;stroke:none" /></g><g
           transform="translate(538.6669,41.8559)"
           id="g200"><path
             d="m 0,0 c 0.415,0.403 0.865,0.679 1.358,0.829 0.493,0.144 0.954,0.222 1.387,0.222 0.947,0 1.73,-0.243 2.351,-0.731 0.619,-0.476 0.998,-1.194 1.134,-2.134 l 3.37,0 C 9.521,-0.874 9.282,-0.058 8.889,0.637 8.495,1.319 7.988,1.896 7.367,2.342 6.747,2.798 6.038,3.143 5.242,3.361 4.446,3.588 3.603,3.706 2.716,3.706 1.456,3.706 0.359,3.494 -0.578,3.071 -1.513,2.646 -2.296,2.068 -2.927,1.325 c -0.63,-0.734 -1.101,-1.609 -1.418,-2.612 -0.315,-1.003 -0.47,-2.078 -0.47,-3.217 0,-1.127 0.159,-2.171 0.486,-3.134 0.326,-0.964 0.804,-1.796 1.434,-2.496 0.63,-0.702 1.402,-1.252 2.317,-1.655 0.919,-0.403 1.974,-0.605 3.178,-0.605 1.967,0 3.546,0.523 4.739,1.58 1.191,1.052 1.943,2.578 2.261,4.564 l -3.37,0 C 6.072,-7.358 5.676,-8.206 5.036,-8.817 4.394,-9.428 3.581,-9.734 2.6,-9.734 c -0.732,0 -1.351,0.149 -1.862,0.459 -0.512,0.299 -0.931,0.698 -1.257,1.193 -0.325,0.495 -0.562,1.056 -0.709,1.687 -0.148,0.629 -0.222,1.259 -0.222,1.891 0,1.158 0.138,2.097 0.414,2.819 C -0.762,-0.968 -0.415,-0.404 0,0"
             id="path202"
             style="fill:#b8b8a2;fill-opacity:1;fill-rule:nonzero;stroke:none" /></g><g
           transform="translate(558.8641,45.5619)"
           id="g204"><path
             d="M 0,0 C -1.005,0 -1.913,-0.232 -2.732,-0.696 -3.549,-1.162 -4.163,-1.735 -4.58,-2.418 l -0.058,0 0,7.827 -3.367,0 0,-21.095 3.367,0 0,9.008 c 0,0.555 0.089,1.074 0.267,1.571 0.18,0.487 0.423,0.915 0.739,1.276 0.314,0.372 0.697,0.654 1.151,0.86 0.452,0.206 0.964,0.316 1.535,0.316 1.006,0 1.743,-0.275 2.215,-0.814 0.473,-0.548 0.73,-1.414 0.769,-2.621 l 0,-9.596 3.366,0 0,10.486 c 0,1.736 -0.483,3.03 -1.445,3.898 C 2.991,-0.434 1.672,0 0,0"
             id="path206"
             style="fill:#b8b8a2;fill-opacity:1;fill-rule:nonzero;stroke:none" /></g><g
           transform="translate(577.0956,35.016)"
           id="g208"><path
             d="M 0,0 C 0,-0.53 -0.128,-0.978 -0.381,-1.346 -0.639,-1.712 -0.958,-2.007 -1.342,-2.245 -1.726,-2.482 -2.135,-2.647 -2.565,-2.751 -3,-2.845 -3.406,-2.894 -3.781,-2.894 c -0.292,0 -0.623,0.03 -0.987,0.091 -0.364,0.052 -0.699,0.161 -1.004,0.305 -0.305,0.146 -0.565,0.347 -0.78,0.606 -0.219,0.257 -0.328,0.567 -0.328,0.947 0,0.427 0.074,0.805 0.222,1.106 0.146,0.309 0.348,0.554 0.605,0.744 0.255,0.185 0.55,0.33 0.885,0.436 0.338,0.11 0.681,0.194 1.034,0.251 0.749,0.143 1.5,0.243 2.245,0.315 C -1.14,1.969 -0.51,2.171 0,2.512 L 0,0 z m 4.168,-2.894 c -0.318,0 -0.529,0.091 -0.637,0.268 -0.107,0.175 -0.162,0.465 -0.162,0.879 l 0,7.858 c 0,0.807 -0.176,1.496 -0.531,2.054 -0.356,0.568 -0.823,1.017 -1.402,1.379 -0.58,0.352 -1.239,0.609 -1.966,0.765 -0.729,0.154 -1.466,0.237 -2.214,0.237 -0.848,0 -1.674,-0.083 -2.483,-0.237 C -6.034,10.153 -6.755,9.875 -7.396,9.482 -8.039,9.089 -8.564,8.563 -8.977,7.922 -9.391,7.27 -9.627,6.451 -9.688,5.463 l 3.371,0 c 0.077,0.825 0.421,1.438 1.032,1.838 0.609,0.392 1.389,0.59 2.334,0.59 0.335,0 0.69,-0.027 1.062,-0.079 0.375,-0.051 0.715,-0.143 1.021,-0.293 0.305,-0.15 0.561,-0.364 0.767,-0.633 C 0.105,6.607 0.208,6.255 0.208,5.821 0.208,5.325 0.084,4.958 -0.157,4.71 -0.408,4.462 -0.743,4.28 -1.164,4.167 -1.586,4.043 -2.075,3.965 -2.626,3.913 -3.179,3.862 -3.76,3.784 -4.368,3.661 -5.077,3.588 -5.784,3.469 -6.48,3.325 -7.18,3.176 -7.812,2.935 -8.373,2.595 -8.934,2.263 -9.385,1.798 -9.732,1.209 c -0.342,-0.588 -0.514,-1.353 -0.514,-2.306 0,-0.746 0.141,-1.401 0.427,-1.96 0.284,-0.557 0.671,-1.023 1.149,-1.383 0.486,-0.375 1.039,-0.644 1.671,-0.83 0.632,-0.194 1.292,-0.284 1.979,-0.284 0.906,0 1.849,0.146 2.822,0.446 0.974,0.289 1.796,0.765 2.465,1.418 0.137,-0.693 0.433,-1.172 0.889,-1.45 0.452,-0.278 1.024,-0.414 1.711,-0.414 0.137,0 0.305,0.011 0.502,0.032 0.196,0.02 0.396,0.047 0.593,0.083 0.196,0.042 0.388,0.087 0.574,0.138 0.187,0.046 0.341,0.089 0.46,0.13 l 0,2.337 c -0.18,-0.041 -0.337,-0.06 -0.474,-0.06 l -0.354,0 z"
             id="path210"
             style="fill:#b8b8a2;fill-opacity:1;fill-rule:nonzero;stroke:none" /></g><g
           transform="translate(587.5018,50.8012)"
           id="g212"><path
             d="m 0,0 c -0.502,-0.104 -0.949,-0.321 -1.344,-0.642 -0.393,-0.333 -0.709,-0.797 -0.945,-1.397 -0.234,-0.599 -0.357,-1.379 -0.357,-2.34 l 0,-1.273 -2.509,0 0,-2.511 2.509,0 0,-12.762 3.37,0 0,12.762 2.866,0 0,2.511 -2.866,0 0,1.562 c 0,0.631 0.162,1.054 0.486,1.271 0.325,0.217 0.716,0.326 1.167,0.326 0.336,0 0.627,-0.011 0.873,-0.042 0.246,-0.031 0.478,-0.077 0.694,-0.139 l 0,2.637 C 3.453,0.098 2.663,0.17 1.58,0.17 1.029,0.17 0.501,0.113 0,0"
             id="path214"
             style="fill:#b8b8a2;fill-opacity:1;fill-rule:nonzero;stroke:none" /></g><g
           transform="translate(598.1717,49.7289)"
           id="g216"><path
             d="m 0,0 -3.369,0 0,-4.58 -2.538,0 0,-2.511 2.538,0 0,-9.009 c 0.02,-0.63 0.085,-1.195 0.194,-1.685 0.107,-0.495 0.313,-0.902 0.618,-1.224 0.306,-0.33 0.729,-0.57 1.27,-0.746 0.543,-0.164 1.257,-0.243 2.143,-0.243 0.375,0 0.738,0.021 1.093,0.052 0.354,0.043 0.719,0.084 1.093,0.125 l 0,2.594 c -0.237,-0.061 -0.474,-0.086 -0.71,-0.096 -0.236,-0.012 -0.473,-0.016 -0.707,-0.016 -0.374,0 -0.671,0.042 -0.888,0.128 -0.216,0.094 -0.38,0.223 -0.487,0.4 -0.107,0.174 -0.177,0.391 -0.206,0.649 C 0.015,-15.903 0,-15.604 0,-15.243 l 0,8.152 3.042,0 0,2.511 L 0,-4.58 0,0 z"
             id="path218"
             style="fill:#b8b8a2;fill-opacity:1;fill-rule:nonzero;stroke:none" /></g><g
           transform="translate(605.7635,38.8529)"
           id="g220"><path
             d="M 0,0 C 0.02,0.578 0.133,1.105 0.34,1.602 0.546,2.089 0.821,2.517 1.166,2.878 1.51,3.25 1.922,3.532 2.405,3.738 2.889,3.944 3.425,4.054 4.018,4.054 4.587,4.054 5.104,3.935 5.566,3.707 6.03,3.48 6.423,3.188 6.748,2.827 7.074,2.454 7.329,2.033 7.518,1.54 7.704,1.044 7.818,0.537 7.858,0 L 0,0 z M 9.628,3.96 C 8.997,4.787 8.207,5.454 7.252,5.952 6.295,6.456 5.217,6.709 4.018,6.709 2.874,6.709 1.851,6.492 0.945,6.059 0.04,5.623 -0.734,5.04 -1.376,4.303 -2.015,3.563 -2.506,2.703 -2.849,1.731 -3.194,0.76 -3.367,-0.271 -3.367,-1.356 c 0,-1.179 0.163,-2.264 0.487,-3.248 0.323,-0.99 0.806,-1.83 1.446,-2.542 0.641,-0.709 1.424,-1.262 2.35,-1.656 0.923,-0.391 1.988,-0.589 3.19,-0.589 0.826,0 1.619,0.11 2.376,0.336 0.76,0.228 1.444,0.566 2.053,1.005 0.611,0.445 1.132,0.997 1.567,1.638 0.433,0.651 0.738,1.395 0.914,2.224 l -3.189,0 C 7.533,-5.037 7.082,-5.674 6.482,-6.098 5.883,-6.521 5.089,-6.731 4.106,-6.731 c -0.71,0 -1.321,0.118 -1.831,0.365 C 1.762,-6.117 1.339,-5.791 1.003,-5.377 0.67,-4.965 0.418,-4.479 0.253,-3.93 0.084,-3.372 0,-2.804 0,-2.214 l 11.226,0 C 11.364,-1.071 11.288,0.035 11,1.111 10.717,2.186 10.258,3.131 9.628,3.96"
             id="path222"
             style="fill:#b8b8a2;fill-opacity:1;fill-rule:nonzero;stroke:none" /></g><g
           transform="translate(631.4862,44.2602)"
           id="g224"><path
             d="m 0,0 c -0.967,0.868 -2.286,1.302 -3.96,1.302 -1.004,0 -1.92,-0.243 -2.748,-0.728 -0.827,-0.476 -1.496,-1.142 -2.006,-1.99 l -0.061,0.062 0,2.243 -3.189,0 0,-15.273 3.367,0 0,9.008 c 0,0.555 0.089,1.074 0.265,1.57 0.179,0.488 0.424,0.915 0.739,1.277 0.315,0.372 0.697,0.654 1.153,0.86 0.453,0.206 0.963,0.315 1.536,0.315 1.005,0 1.741,-0.274 2.214,-0.813 0.474,-0.548 0.728,-1.414 0.77,-2.621 l 0,-9.596 3.366,0 0,10.486 C 1.446,-2.162 0.963,-0.868 0,0"
             id="path226"
             style="fill:#b8b8a2;fill-opacity:1;fill-rule:nonzero;stroke:none" /></g></g></g></g></svg>